<?xml version="1.0" standalone="no"?><!DOCTYPE svg PUBLIC "-//W3C//DTD SVG 1.1//EN" "http://www.w3.org/Graphics/SVG/1.1/DTD/svg11.dtd"><svg t="1753953958429" class="icon" viewBox="0 0 1092 1024" version="1.1" xmlns="http://www.w3.org/2000/svg" p-id="8483" xmlns:xlink="http://www.w3.org/1999/xlink" width="213.28125" height="200"><path d="M27.557888 438.829056q-9.568256 76.578816 0 430.702592 313.491456-4.685824 520.486912 154.468352V0.360448Q217.808896-10.551296 65.601536 304.644096q-28.475392 57.67168-38.043648 134.18496z" fill="#BBB5AF" p-id="8484"></path><path d="M1068.531712 440.7296q9.535488 76.283904 0 429.2608-314.114048-4.653056-520.486912 154.0096L548.864 0.16384Q878.83776-7.20896 1030.5536 306.937856q28.409856 57.475072 37.945344 133.791744z" fill="#8C8986" p-id="8485"></path><path d="M106.266624 304.41472q-60.719104 131.072-39.48544 299.696128c21.2992 168.59136 174.751744 322.60096 479.72352 318.439424V304.381952H106.299392z" fill="#3C4042" p-id="8486"></path><path d="M156.860416 305.954816q-53.968896 131.072-35.06176 299.66336c18.874368 168.558592 155.254784 322.568192 426.246144 318.406656V305.954816H156.860416z" fill="#E3DED8" p-id="8487"></path><path d="M986.054656 305.954816q60.391424 131.072 39.256064 299.66336c-21.13536 168.558592-173.867008 322.568192-477.26592 318.406656V305.954816h438.009856z" fill="#2D2C2C" p-id="8488"></path><path d="M939.196416 305.954816q53.968896 131.072 35.06176 299.66336c-18.874368 168.558592-155.254784 322.568192-426.213376 318.406656V305.954816h391.151616z" fill="#BBB6B0" p-id="8489"></path><path d="M327.909376 749.273088c-29.81888 78.47936 19.464192 144.83456 44.040192 152.961024 24.576 8.126464 105.02144 21.856256 176.095232 21.856256q0.851968 0 0-449.57696h-103.2192q41.61536 34.373632 34.89792 96.796672c-6.750208 62.455808-121.995264 99.45088-151.814144 177.93024z" fill="#CEC6BE" p-id="8490"></path><path d="M769.458176 749.273088c29.949952 78.47936-19.529728 144.83456-44.204032 152.961024-24.674304 8.126464-105.414656 21.856256-176.78336 21.856256q-0.851968 0 0-449.57696h103.645184q-41.844736 34.373632-35.06176 96.796672c6.782976 62.455808 122.454016 99.45088 152.3712 177.93024z" fill="#A19A92" p-id="8491"></path><path d="M1.507328 104.595456L62.2592 295.010304q168.493056 38.928384 268.6976 113.967104 100.237312 75.03872 215.61344 103.022592v-245.10464L1.47456 104.628224z" fill="#84817E" p-id="8492"></path><path d="M1091.50208 106.16832l-60.555264 189.693952q-168.001536 38.764544-267.943936 113.508352-99.9424 74.776576-214.95808 102.629376v-244.1216L1091.50208 106.16832z" fill="#605E5A" p-id="8493"></path><path d="M0 104.595456q206.4384 95.223808 320.3072 220.102656 33.030144 36.175872 37.584896 32.899072 11.14112-8.02816-148.406272-253.001728-100.171776-28.114944-209.485824 0z" fill="#BDB8B3" p-id="8494"></path><path d="M1092.255744 106.16832q-210.04288 90.996736-323.780608 216.399872-32.964608 36.339712-37.51936 33.062912-11.206656-8.02816 148.209664-254.11584 103.87456-23.59296 213.090304 4.620288z" fill="#8C8986" p-id="8495"></path><path d="M209.485824 100.630528q97.15712 298.156032 335.54432 412.123136 1.867776 0 0-512-192.83968-9.371648-335.54432 99.876864z" fill="#E3DDD9" p-id="8496"></path><path d="M882.016256 100.499456q-97.32096 297.69728-336.068608 411.500544-1.900544 0 0-511.246336 193.134592-9.371648 336.068608 99.745792z" fill="#BBB5B0" p-id="8497"></path><path d="M501.51424 707.035136q-9.273344 45.8752 46.53056 110.91968v-168.296448q-37.224448 11.4688-46.53056 57.344z" fill="#C09A63" p-id="8498"></path><path d="M594.935808 707.035136q9.306112 45.8752-46.465024 110.91968v-168.296448q37.158912 11.4688 46.465024 57.344z" fill="#816B4A" p-id="8499"></path><path d="M429.58848 515.11296q0 4.9152-0.458752 9.8304-0.458752 4.849664-1.409024 9.66656-0.950272 4.816896-2.359296 9.50272-1.409024 4.718592-3.2768 9.240576-1.835008 4.521984-4.128768 8.84736-2.29376 4.358144-4.980736 8.421376-2.686976 4.096-5.767168 7.86432-3.080192 3.801088-6.488064 7.274496-3.44064 3.473408-7.20896 6.586368-3.702784 3.11296-7.733248 5.832704-4.030464 2.719744-8.323072 5.046272-4.25984 2.29376-8.749056 4.194304-4.489216 1.867776-9.109504 3.2768-4.653056 1.441792-9.404416 2.392064-4.75136 0.98304-9.568256 1.441792-4.849664 0.49152-9.66656 0.49152-4.849664 0-9.699328-0.49152-4.816896-0.458752-9.568256-1.441792-4.75136-0.950272-9.404416-2.359296-4.620288-1.441792-9.109504-3.309568-4.489216-1.867776-8.749056-4.194304-4.25984-2.29376-8.323072-5.046272-4.030464-2.719744-7.766016-5.832704-3.735552-3.11296-7.176192-6.5536-3.407872-3.506176-6.488064-7.307264-3.080192-3.76832-5.767168-7.86432-2.719744-4.063232-4.980736-8.421376-2.29376-4.325376-4.161536-8.84736-1.835008-4.521984-3.2768-9.240576-1.376256-4.685824-2.326528-9.50272-0.950272-4.816896-1.409024-9.699328-0.49152-4.882432-0.49152-9.797632t0.49152-9.797632q0.458752-4.882432 1.409024-9.699328 0.950272-4.784128 2.359296-9.50272 1.409024-4.685824 3.2768-9.207808 1.835008-4.554752 4.128768-8.84736 2.29376-4.358144 4.980736-8.454144 2.686976-4.063232 5.767168-7.86432 3.080192-3.801088 6.488064-7.274496 3.44064-3.44064 7.20896-6.5536 3.702784-3.11296 7.733248-5.865472 4.030464-2.719744 8.323072-5.013504 4.25984-2.326528 8.749056-4.194304 4.489216-1.900544 9.109504-3.309568 4.653056-1.441792 9.404416-2.392064 4.75136-0.98304 9.568256-1.441792 4.849664-0.458752 9.699328-0.458752 4.816896 0 9.66656 0.458752 4.816896 0.49152 9.568256 1.441792 4.75136 0.98304 9.404416 2.392064 4.620288 1.409024 9.109504 3.2768 4.489216 1.900544 8.749056 4.227072 4.25984 2.29376 8.323072 5.013504 4.030464 2.752512 7.766016 5.865472 3.735552 3.11296 7.176192 6.5536 3.407872 3.473408 6.488064 7.274496 3.080192 3.801088 5.767168 7.86432 2.719744 4.096 4.980736 8.421376 2.29376 4.325376 4.161536 8.84736 1.835008 4.554752 3.2768 9.240576 1.376256 4.718592 2.326528 9.50272 0.950272 4.816896 1.409024 9.699328 0.49152 4.9152 0.49152 9.8304z" fill="#423D3B" p-id="8500"></path><path d="M863.797248 515.11296q0 4.9152-0.458752 9.8304-0.49152 4.849664-1.441792 9.66656-0.950272 4.816896-2.359296 9.50272-1.376256 4.718592-3.2768 9.240576-1.835008 4.521984-4.096 8.84736-2.29376 4.358144-4.980736 8.421376-2.719744 4.096-5.767168 7.86432-3.080192 3.801088-6.520832 7.274496-3.407872 3.473408-7.176192 6.586368-3.735552 3.11296-7.766016 5.832704-4.030464 2.719744-8.323072 5.046272-4.25984 2.29376-8.749056 4.194304-4.489216 1.867776-9.109504 3.2768-4.653056 1.441792-9.404416 2.392064-4.75136 0.98304-9.568256 1.441792-4.816896 0.49152-9.66656 0.49152t-9.66656-0.49152q-4.849664-0.458752-9.601024-1.441792-4.75136-0.950272-9.371648-2.359296-4.653056-1.441792-9.142272-3.309568-4.456448-1.867776-8.749056-4.194304-4.25984-2.29376-8.290304-5.046272-4.030464-2.719744-7.798784-5.832704-3.735552-3.11296-7.176192-6.5536-3.407872-3.506176-6.488064-7.307264-3.080192-3.76832-5.767168-7.86432-2.686976-4.063232-4.980736-8.421376-2.29376-4.325376-4.128768-8.84736-1.867776-4.521984-3.2768-9.240576-1.409024-4.685824-2.359296-9.50272-0.950272-4.816896-1.409024-9.699328-0.49152-4.882432-0.49152-9.797632t0.49152-9.797632q0.458752-4.882432 1.409024-9.699328 0.98304-4.784128 2.359296-9.50272 1.409024-4.685824 3.2768-9.207808 1.835008-4.554752 4.128768-8.84736 2.29376-4.358144 4.980736-8.454144 2.686976-4.063232 5.767168-7.86432 3.080192-3.801088 6.488064-7.274496 3.44064-3.44064 7.20896-6.5536 3.735552-3.11296 7.766016-5.865472 4.030464-2.719744 8.290304-5.013504 4.25984-2.326528 8.749056-4.194304 4.489216-1.900544 9.142272-3.309568 4.620288-1.441792 9.371648-2.392064 4.75136-0.98304 9.601024-1.441792 4.816896-0.458752 9.66656-0.458752t9.66656 0.458752q4.816896 0.49152 9.568256 1.441792 4.75136 0.98304 9.404416 2.392064 4.620288 1.409024 9.109504 3.2768 4.489216 1.900544 8.749056 4.227072 4.25984 2.29376 8.323072 5.013504 4.030464 2.752512 7.766016 5.865472 3.76832 3.11296 7.20896 6.5536 3.407872 3.473408 6.488064 7.274496 3.047424 3.801088 5.767168 7.86432 2.686976 4.096 4.980736 8.421376 2.29376 4.325376 4.128768 8.84736 1.867776 4.554752 3.2768 9.240576 1.376256 4.718592 2.326528 9.50272 0.98304 4.816896 1.441792 9.699328 0.458752 4.9152 0.458752 9.8304z" fill="#282926" p-id="8501"></path><path d="M423.559168 501.088256q0 3.899392-0.393216 7.798784t-1.14688 7.733248q-0.753664 3.833856-1.867776 7.53664-1.114112 3.76832-2.62144 7.3728-1.47456 3.60448-3.2768 7.077888-1.867776 3.44064-3.997696 6.684672-2.162688 3.2768-4.620288 6.291456-2.4576 3.014656-5.210112 5.799936-2.752512 2.752512-5.7344 5.24288-3.014656 2.4576-6.22592 4.653056-3.211264 2.162688-6.651904 3.997696-3.407872 1.867776-7.012352 3.342336-3.571712 1.507328-7.274496 2.62144-3.702784 1.14688-7.53664 1.900544-3.801088 0.786432-7.634944 1.14688-3.866624 0.393216-7.733248 0.393216-3.899392 0-7.766016-0.393216-3.833856-0.360448-7.634944-1.14688-3.833856-0.753664-7.53664-1.867776-3.702784-1.14688-7.274496-2.62144-3.60448-1.507328-7.012352-3.375104-3.407872-1.835008-6.651904-3.997696-3.211264-2.195456-6.22592-4.653056-2.981888-2.490368-5.7344-5.24288-2.752512-2.78528-5.210112-5.799936-2.4576-3.014656-4.58752-6.291456-2.162688-3.244032-3.997696-6.684672-1.835008-3.44064-3.309568-7.077888-1.47456-3.60448-2.62144-7.340032-1.114112-3.735552-1.867776-7.569408t-1.14688-7.733248q-0.393216-3.899392-0.393216-7.798784 0-3.93216 0.393216-7.798784 0.393216-3.93216 1.14688-7.733248 0.753664-3.833856 1.867776-7.602176 1.14688-3.735552 2.62144-7.340032t3.2768-7.077888q1.867776-3.44064 3.997696-6.684672 2.162688-3.2768 4.620288-6.291456 2.4576-3.014656 5.210112-5.767168 2.752512-2.78528 5.7344-5.24288 3.014656-2.490368 6.22592-4.653056 3.244032-2.195456 6.651904-4.030464 3.407872-1.835008 7.012352-3.342336 3.571712-1.507328 7.274496-2.62144 3.702784-1.14688 7.53664-1.900544 3.801088-0.753664 7.634944-1.14688 3.866624-0.393216 7.766016-0.393216 3.866624 0 7.733248 0.393216 3.833856 0.393216 7.667712 1.14688 3.801088 0.753664 7.503872 1.900544 3.702784 1.114112 7.274496 2.62144 3.60448 1.507328 7.012352 3.342336 3.44064 1.835008 6.651904 4.030464 3.211264 2.162688 6.22592 4.653056 2.981888 2.4576 5.7344 5.24288 2.752512 2.752512 5.210112 5.767168 2.4576 3.047424 4.58752 6.291456 2.162688 3.2768 3.997696 6.684672 1.835008 3.473408 3.309568 7.077888 1.507328 3.60448 2.62144 7.340032 1.114112 3.76832 1.867776 7.602176t1.14688 7.733248q0.393216 3.866624 0.393216 7.798784z" fill="#E6C366" p-id="8502"></path><path d="M827.392 501.088256q0 3.899392-0.393216 7.798784t-1.14688 7.733248q-0.753664 3.833856-1.900544 7.53664-1.114112 3.76832-2.62144 7.3728-1.47456 3.60448-3.2768 7.077888-1.835008 3.44064-3.997696 6.684672-2.162688 3.2768-4.58752 6.291456-2.490368 3.014656-5.24288 5.799936-2.719744 2.752512-5.7344 5.24288-2.981888 2.4576-6.22592 4.653056-3.211264 2.162688-6.619136 3.997696-3.44064 1.867776-7.012352 3.342336-3.60448 1.507328-7.307264 2.62144-3.702784 1.14688-7.503872 1.900544-3.801088 0.786432-7.667712 1.14688-3.866624 0.393216-7.733248 0.393216t-7.733248-0.393216q-3.866624-0.360448-7.667712-1.14688-3.801088-0.753664-7.53664-1.867776-3.702784-1.14688-7.274496-2.62144-3.60448-1.507328-7.012352-3.375104-3.407872-1.835008-6.619136-3.997696-3.244032-2.195456-6.22592-4.653056-3.014656-2.490368-5.7344-5.24288-2.752512-2.78528-5.24288-5.799936-2.424832-3.014656-4.58752-6.291456-2.162688-3.244032-3.997696-6.684672-1.80224-3.44064-3.2768-7.077888-1.507328-3.60448-2.62144-7.340032-1.14688-3.735552-1.900544-7.569408t-1.114112-7.733248q-0.393216-3.899392-0.393216-7.798784 0-3.93216 0.393216-7.798784 0.360448-3.93216 1.114112-7.733248 0.753664-3.833856 1.900544-7.602176 1.114112-3.735552 2.62144-7.340032 1.47456-3.60448 3.2768-7.077888 1.835008-3.44064 3.997696-6.684672 2.162688-3.2768 4.58752-6.291456 2.490368-3.014656 5.24288-5.767168 2.719744-2.78528 5.7344-5.24288 2.981888-2.490368 6.22592-4.653056 3.211264-2.195456 6.619136-4.030464 3.44064-1.835008 7.012352-3.342336 3.60448-1.507328 7.307264-2.62144 3.702784-1.14688 7.503872-1.900544t7.667712-1.14688q3.866624-0.393216 7.733248-0.393216t7.733248 0.393216q3.866624 0.393216 7.667712 1.14688 3.801088 0.753664 7.53664 1.900544 3.702784 1.114112 7.274496 2.62144 3.60448 1.507328 7.012352 3.342336 3.407872 1.835008 6.619136 4.030464 3.244032 2.162688 6.22592 4.653056 3.014656 2.4576 5.767168 5.24288 2.719744 2.752512 5.177344 5.767168 2.4576 3.047424 4.620288 6.291456 2.162688 3.2768 3.997696 6.684672 1.80224 3.473408 3.2768 7.077888 1.507328 3.60448 2.62144 7.340032 1.14688 3.76832 1.900544 7.602176t1.14688 7.733248q0.360448 3.866624 0.360448 7.798784z" fill="#E5C568" p-id="8503"></path><path d="M420.511744 491.716608q0 2.359296-0.229376 4.718592-0.229376 2.392064-0.688128 4.718592-0.49152 2.29376-1.179648 4.58752-0.65536 2.29376-1.605632 4.489216-0.917504 2.195456-2.031616 4.25984-1.114112 2.12992-2.4576 4.096-1.31072 1.96608-2.818048 3.833856-1.540096 1.835008-3.211264 3.506176-1.703936 1.671168-3.538944 3.178496-1.835008 1.507328-3.833856 2.850816-1.96608 1.31072-4.096 2.424832-2.097152 1.114112-4.292608 2.031616-2.195456 0.917504-4.489216 1.605632-2.29376 0.65536-4.620288 1.14688-2.359296 0.458752-4.718592 0.688128-2.392064 0.229376-4.75136 0.229376-2.392064 0-4.784128-0.229376-2.359296-0.229376-4.718592-0.65536-2.326528-0.49152-4.58752-1.179648-2.29376-0.688128-4.521984-1.605632-2.195456-0.917504-4.292608-2.031616-2.12992-1.114112-4.096-2.424832-1.96608-1.31072-3.833856-2.850816-1.835008-1.507328-3.538944-3.178496-1.671168-1.671168-3.178496-3.506176-1.540096-1.867776-2.850816-3.833856-1.31072-1.96608-2.4576-4.063232-1.114112-2.097152-2.031616-4.292608-0.917504-2.195456-1.6384-4.489216-0.65536-2.29376-1.114112-4.58752-0.49152-2.326528-0.720896-4.718592-0.229376-2.359296-0.229376-4.718592 0-2.392064 0.229376-4.75136t0.720896-4.685824q0.458752-2.359296 1.14688-4.620288 0.688128-2.29376 1.605632-4.456448 0.917504-2.195456 2.031616-4.292608t2.4576-4.096q1.31072-1.96608 2.850816-3.801088 1.507328-1.835008 3.178496-3.538944 1.703936-1.6384 3.538944-3.178496 1.835008-1.507328 3.833856-2.818048 1.96608-1.31072 4.096-2.4576 2.097152-1.114112 4.292608-2.031616 2.228224-0.884736 4.489216-1.572864 2.29376-0.720896 4.620288-1.179648 2.359296-0.458752 4.718592-0.688128 2.392064-0.229376 4.784128-0.229376 2.359296 0 4.75136 0.229376 2.359296 0.229376 4.718592 0.688128 2.326528 0.458752 4.58752 1.179648 2.29376 0.65536 4.521984 1.572864 2.195456 0.917504 4.292608 2.031616 2.12992 1.14688 4.096 2.4576 1.96608 1.31072 3.833856 2.818048 1.835008 1.507328 3.538944 3.178496 1.671168 1.703936 3.211264 3.538944 1.507328 1.835008 2.818048 3.801088 1.31072 1.96608 2.4576 4.096 1.114112 2.097152 2.031616 4.25984 0.917504 2.228224 1.6384 4.489216 0.65536 2.29376 1.14688 4.58752 0.458752 2.359296 0.688128 4.718592 0.229376 2.359296 0.229376 4.75136z" fill="#2D2C29" p-id="8504"></path><path d="M769.687552 491.716608q0 2.359296-0.229376 4.718592-0.229376 2.392064-0.720896 4.718592-0.458752 2.29376-1.14688 4.58752-0.688128 2.29376-1.605632 4.489216t-2.031616 4.25984q-1.14688 2.12992-2.4576 4.096-1.31072 1.96608-2.850816 3.833856-1.507328 1.835008-3.178496 3.506176-1.703936 1.671168-3.538944 3.178496-1.835008 1.507328-3.833856 2.850816-1.96608 1.31072-4.096 2.424832-2.097152 1.114112-4.292608 2.031616-2.228224 0.917504-4.489216 1.605632-2.29376 0.65536-4.620288 1.14688-2.359296 0.458752-4.718592 0.688128-2.392064 0.229376-4.784128 0.229376-2.359296 0-4.75136-0.229376-2.359296-0.229376-4.718592-0.65536-2.326528-0.49152-4.620288-1.179648-2.29376-0.688128-4.489216-1.605632t-4.325376-2.031616q-2.097152-1.114112-4.063232-2.424832-1.96608-1.31072-3.833856-2.850816-1.835008-1.507328-3.538944-3.178496-1.671168-1.671168-3.211264-3.506176-1.507328-1.867776-2.818048-3.833856-1.31072-1.96608-2.4576-4.063232-1.114112-2.097152-2.031616-4.292608-0.917504-2.195456-1.6384-4.489216-0.65536-2.29376-1.14688-4.58752-0.458752-2.326528-0.688128-4.718592-0.229376-2.359296-0.229376-4.718592 0-2.392064 0.229376-4.75136t0.688128-4.685824q0.458752-2.359296 1.179648-4.620288 0.65536-2.29376 1.605632-4.456448 0.917504-2.195456 2.031616-4.292608t2.4576-4.096q1.31072-1.96608 2.818048-3.801088 1.540096-1.835008 3.211264-3.538944 1.703936-1.6384 3.538944-3.178496 1.835008-1.507328 3.833856-2.818048 1.96608-1.31072 4.063232-2.4576 2.12992-1.114112 4.325376-2.031616 2.195456-0.884736 4.489216-1.572864 2.29376-0.720896 4.620288-1.179648 2.359296-0.458752 4.718592-0.688128 2.392064-0.229376 4.75136-0.229376 2.392064 0 4.784128 0.229376 2.359296 0.229376 4.718592 0.688128 2.326528 0.458752 4.58752 1.179648 2.29376 0.65536 4.521984 1.572864 2.195456 0.917504 4.292608 2.031616 2.097152 1.14688 4.096 2.4576 1.96608 1.31072 3.833856 2.818048 1.835008 1.507328 3.538944 3.178496 1.671168 1.703936 3.178496 3.538944 1.540096 1.835008 2.850816 3.801088 1.31072 1.96608 2.4576 4.096 1.114112 2.097152 2.031616 4.25984 0.917504 2.228224 1.605632 4.489216 0.688128 2.29376 1.14688 4.58752 0.49152 2.359296 0.720896 4.718592 0.229376 2.359296 0.229376 4.75136z" fill="#2C2C2C" p-id="8505"></path></svg>